{
    "patcher": {
        "fileversion": 1,
        "appversion": {
            "major": 9,
            "minor": 1,
            "revision": 0,
            "architecture": "x64",
            "modernui": 1
        },
        "classnamespace": "box",
        "rect": [ 41.0, 71.0, 816.0, 1008.0 ],
        "boxes": [
            {
                "box": {
                    "format": 6,
                    "id": "obj-23",
                    "maxclass": "flonum",
                    "numinlets": 1,
                    "numoutlets": 2,
                    "outlettype": [ "", "bang" ],
                    "parameter_enable": 0,
                    "patching_rect": [ 785.0, 342.0, 50.0, 22.0 ]
                }
            },
            {
                "box": {
                    "format": 6,
                    "id": "obj-21",
                    "maxclass": "flonum",
                    "numinlets": 1,
                    "numoutlets": 2,
                    "outlettype": [ "", "bang" ],
                    "parameter_enable": 0,
                    "patching_rect": [ 719.0, 304.0, 50.0, 22.0 ]
                }
            },
            {
                "box": {
                    "format": 6,
                    "id": "obj-18",
                    "maxclass": "flonum",
                    "numinlets": 1,
                    "numoutlets": 2,
                    "outlettype": [ "", "bang" ],
                    "parameter_enable": 0,
                    "patching_rect": [ 643.0, 321.0, 50.0, 22.0 ]
                }
            },
            {
                "box": {
                    "id": "obj-16",
                    "maxclass": "newobj",
                    "numinlets": 3,
                    "numoutlets": 1,
                    "outlettype": [ "" ],
                    "patching_rect": [ 694.5, 356.0, 68.0, 22.0 ],
                    "text": "pak 0. 0. 0."
                }
            },
            {
                "box": {
                    "id": "obj-15",
                    "maxclass": "newobj",
                    "numinlets": 1,
                    "numoutlets": 1,
                    "outlettype": [ "" ],
                    "patching_rect": [ 694.5, 394.0, 99.0, 22.0 ],
                    "text": "prepend lightPos"
                }
            },
            {
                "box": {
                    "id": "obj-10",
                    "maxclass": "newobj",
                    "numinlets": 1,
                    "numoutlets": 2,
                    "outlettype": [ "jit_gl_texture", "" ],
                    "patching_rect": [ 304.5, 363.0, 158.0, 22.0 ],
                    "text": "jit.gl.texture @dim 1280 720"
                }
            },
            {
                "box": {
                    "id": "obj-5",
                    "linecount": 2,
                    "maxclass": "message",
                    "numinlets": 2,
                    "numoutlets": 1,
                    "outlettype": [ "" ],
                    "patching_rect": [ 405.0, 265.0, 50.0, 35.0 ],
                    "text": "1280 720"
                }
            },
            {
                "box": {
                    "id": "obj-41",
                    "maxclass": "newobj",
                    "numinlets": 1,
                    "numoutlets": 1,
                    "outlettype": [ "" ],
                    "patching_rect": [ 140.0, 83.0, 99.0, 22.0 ],
                    "text": "loadmess getdim"
                }
            },
            {
                "box": {
                    "id": "obj-40",
                    "maxclass": "newobj",
                    "numinlets": 1,
                    "numoutlets": 1,
                    "outlettype": [ "" ],
                    "patching_rect": [ 469.0, 264.0, 115.0, 22.0 ],
                    "text": "prepend iResolution"
                }
            },
            {
                "box": {
                    "id": "obj-39",
                    "maxclass": "newobj",
                    "numinlets": 2,
                    "numoutlets": 2,
                    "outlettype": [ "", "" ],
                    "patching_rect": [ 469.0, 225.0, 59.0, 22.0 ],
                    "text": "route dim"
                }
            },
            {
                "box": {
                    "id": "obj-25",
                    "maxclass": "newobj",
                    "numinlets": 1,
                    "numoutlets": 1,
                    "outlettype": [ "" ],
                    "patching_rect": [ 469.0, 321.0, 90.0, 22.0 ],
                    "text": "prepend param"
                }
            },
            {
                "box": {
                    "id": "obj-19",
                    "maxclass": "newobj",
                    "numinlets": 1,
                    "numoutlets": 1,
                    "outlettype": [ "" ],
                    "patching_rect": [ 601.0, 264.0, 85.0, 22.0 ],
                    "text": "prepend iTime"
                }
            },
            {
                "box": {
                    "id": "obj-14",
                    "maxclass": "toggle",
                    "numinlets": 1,
                    "numoutlets": 1,
                    "outlettype": [ "int" ],
                    "parameter_enable": 0,
                    "patching_rect": [ 160.0, 116.0, 39.0, 39.0 ]
                }
            },
            {
                "box": {
                    "id": "obj-7",
                    "maxclass": "message",
                    "numinlets": 2,
                    "numoutlets": 1,
                    "outlettype": [ "" ],
                    "patching_rect": [ 745.0, 139.0, 37.0, 22.0 ],
                    "text": "reset"
                }
            },
            {
                "box": {
                    "attr": "speed",
                    "id": "obj-8",
                    "maxclass": "attrui",
                    "numinlets": 1,
                    "numoutlets": 1,
                    "outlettype": [ "" ],
                    "parameter_enable": 0,
                    "patching_rect": [ 601.0, 139.0, 128.0, 22.0 ],
                    "text_width": 63.0
                }
            },
            {
                "box": {
                    "format": 6,
                    "id": "obj-11",
                    "maxclass": "flonum",
                    "numinlets": 1,
                    "numoutlets": 2,
                    "outlettype": [ "", "bang" ],
                    "parameter_enable": 0,
                    "patching_rect": [ 620.0, 231.0, 99.0, 22.0 ]
                }
            },
            {
                "box": {
                    "color": [ 0.490196, 0.498039, 0.517647, 1.0 ],
                    "id": "obj-13",
                    "maxclass": "newobj",
                    "numinlets": 1,
                    "numoutlets": 2,
                    "outlettype": [ "", "" ],
                    "patching_rect": [ 601.0, 191.0, 286.0, 22.0 ],
                    "text": "jit.mo.time @mode accum @enable 0 @automatic 1"
                }
            },
            {
                "box": {
                    "id": "obj-4",
                    "maxclass": "jit.pwindow",
                    "numinlets": 1,
                    "numoutlets": 2,
                    "outlettype": [ "jit_matrix", "" ],
                    "patching_rect": [ 304.5, 502.0, 247.0, 146.0 ],
                    "sync": 1
                }
            },
            {
                "box": {
                    "filename": "raymarching-template.jxs",
                    "id": "obj-3",
                    "maxclass": "newobj",
                    "numinlets": 2,
                    "numoutlets": 2,
                    "outlettype": [ "jit_gl_texture", "" ],
                    "patching_rect": [ 304.5, 442.0, 445.0, 22.0 ],
                    "text": "jit.gl.slab @file raymarching-template.jxs @type float32 @adapt 0 @dim 1280 720",
                    "textfile": {
                        "filename": "raymarching-template.jxs",
                        "flags": 0,
                        "embed": 0,
                        "autowatch": 1
                    }
                }
            },
            {
                "box": {
                    "id": "obj-1",
                    "maxclass": "newobj",
                    "numinlets": 1,
                    "numoutlets": 3,
                    "outlettype": [ "jit_matrix", "bang", "" ],
                    "patching_rect": [ 140.0, 191.0, 348.0, 22.0 ],
                    "text": "jit.world @size 1280 720 @dim 1280 720 @floating 1 @fsaa 1"
                }
            },
            {
                "box": {
                    "attr": "visible",
                    "id": "obj-12",
                    "maxclass": "attrui",
                    "numinlets": 1,
                    "numoutlets": 1,
                    "outlettype": [ "" ],
                    "parameter_enable": 0,
                    "patching_rect": [ 241.0, 124.5, 150.0, 22.0 ]
                }
            }
        ],
        "lines": [
            {
                "patchline": {
                    "destination": [ "obj-10", 0 ],
                    "source": [ "obj-1", 1 ]
                }
            },
            {
                "patchline": {
                    "destination": [ "obj-39", 0 ],
                    "source": [ "obj-1", 2 ]
                }
            },
            {
                "patchline": {
                    "destination": [ "obj-3", 0 ],
                    "source": [ "obj-10", 0 ]
                }
            },
            {
                "patchline": {
                    "destination": [ "obj-1", 0 ],
                    "source": [ "obj-12", 0 ]
                }
            },
            {
                "patchline": {
                    "destination": [ "obj-11", 0 ],
                    "order": 0,
                    "source": [ "obj-13", 0 ]
                }
            },
            {
                "patchline": {
                    "destination": [ "obj-19", 0 ],
                    "order": 1,
                    "source": [ "obj-13", 0 ]
                }
            },
            {
                "patchline": {
                    "destination": [ "obj-1", 0 ],
                    "order": 1,
                    "source": [ "obj-14", 0 ]
                }
            },
            {
                "patchline": {
                    "destination": [ "obj-13", 0 ],
                    "order": 0,
                    "source": [ "obj-14", 0 ]
                }
            },
            {
                "patchline": {
                    "destination": [ "obj-25", 0 ],
                    "source": [ "obj-15", 0 ]
                }
            },
            {
                "patchline": {
                    "destination": [ "obj-15", 0 ],
                    "source": [ "obj-16", 0 ]
                }
            },
            {
                "patchline": {
                    "destination": [ "obj-16", 0 ],
                    "source": [ "obj-18", 0 ]
                }
            },
            {
                "patchline": {
                    "destination": [ "obj-25", 0 ],
                    "midpoints": [ 610.5, 306.0, 478.5, 306.0 ],
                    "source": [ "obj-19", 0 ]
                }
            },
            {
                "patchline": {
                    "destination": [ "obj-16", 1 ],
                    "source": [ "obj-21", 0 ]
                }
            },
            {
                "patchline": {
                    "destination": [ "obj-16", 2 ],
                    "source": [ "obj-23", 0 ]
                }
            },
            {
                "patchline": {
                    "destination": [ "obj-3", 0 ],
                    "midpoints": [ 478.5, 429.0, 314.0, 429.0 ],
                    "source": [ "obj-25", 0 ]
                }
            },
            {
                "patchline": {
                    "destination": [ "obj-1", 0 ],
                    "midpoints": [ 314.0, 493.26177978515625, 126.0, 493.26177978515625, 126.0, 186.0, 149.5, 186.0 ],
                    "order": 1,
                    "source": [ "obj-3", 0 ]
                }
            },
            {
                "patchline": {
                    "destination": [ "obj-4", 0 ],
                    "order": 0,
                    "source": [ "obj-3", 0 ]
                }
            },
            {
                "patchline": {
                    "destination": [ "obj-40", 0 ],
                    "order": 0,
                    "source": [ "obj-39", 0 ]
                }
            },
            {
                "patchline": {
                    "destination": [ "obj-5", 1 ],
                    "order": 1,
                    "source": [ "obj-39", 0 ]
                }
            },
            {
                "patchline": {
                    "destination": [ "obj-25", 0 ],
                    "source": [ "obj-40", 0 ]
                }
            },
            {
                "patchline": {
                    "destination": [ "obj-1", 0 ],
                    "source": [ "obj-41", 0 ]
                }
            },
            {
                "patchline": {
                    "destination": [ "obj-13", 0 ],
                    "source": [ "obj-7", 0 ]
                }
            },
            {
                "patchline": {
                    "destination": [ "obj-13", 0 ],
                    "source": [ "obj-8", 0 ]
                }
            }
        ],
        "autosave": 0
    }
}